<svg xmlns="http://www.w3.org/2000/svg" width="256" height="256" viewBox="0 0 256 256">
<!-- SVG created with Arrow, by QuiverAI (https://quiver.ai) -->
  <path d="m128.7 10.81c8.42-3.34 17.59-4.64 27.17-4.25 21.9 0.91 37.23 11.3 53.08 25.4l-12.02 3.77c19.92 12.02 29.93 32.41 30.46 60.18-5.49-3.77-9.48-6.3-15.22-7.8 15.85 21.18 20.97 45.2 9.88 77.16l-5.39 12.99c0.09-9.53-2.44-17.05-8.02-25.83 4.24 24.72-8.08 51.78-38.45 75.23l-1.75 1.35c3.01-8.19 3.29-13.93 3.25-20.27-10.48 15.42-24.67 19.98-43.09 41.16l-0.09-238.5 0.19-0.63z" fill="#76261F"/>
  <path d="m131.2 17.06c10.86-4.45 23.76-4.26 37.96-1.82-16.6 4.16-26.09 13.69-40.49 39.98l-0.09-36.1 2.62-2.06z" fill="#C53A36"/>
  <path d="m143.1 47.22c6.26-1.16 10.59-0.58 15.79 0.38 10.2-11.54 19.73-17.28 39-8.31 2.81-1.3-0.87-3.27-0.96-4.38l9.72-3.97c-24.3-12.11-46.66-10.81-63.55 16.28z" fill="#C53A36"/>
  <path d="m168.4 50.42c6.75-6.62 11.77-8.49 17.25-7 9.2 2.69 12.29 13.99 5.45 23.71-9.35-7.32-13.96-10.85-22.7-16.71z" fill="#FEFFFE"/>
  <path d="m202.6 51.09c7.56 7.67 11.53 16.67 13.96 28.93l-14.44-3.29-5.01-3.58c5.78-7.27 6.84-13.08 5.49-22.06z" fill="#C53A36"/>
  <path d="m184 70.81c24.81 19.47 39.86 41.22 32.69 80.31l-14.76-19.91c-7.05-8.78-13.31-26.09-13.31-35.2 0-5.73 2.52-11-4.62-25.2z" fill="#C53A36"/>
  <path d="m187.5 122.7-13.57 18.05c9.35 18.43 11.04 34.96 5.65 53.2-0.86 4.06 0.19 8.12 0.37 15.16 18.66-20.9 26.99-45.01 14.48-71.49l-6.93-14.92z" fill="#C53A36"/>
  <path d="m170.3 153.9c8.05 17.06 5.52 42.91-20.26 64.37 5.11-11.07 6.17-19.85 5.02-29.96 3.53-5.55 2.85-10.59 2.42-17.63 7.32-3.03 10.32-8.58 12.82-16.78z" fill="#AD763D"/>
  <path d="m128.5 192.7c5.74-1.25 9.17-5.12 12.93-9.47v7.32c6.17-4.25 8.41-10.96 7.83-19.16-7.56-0.28-13.04-5.23-20.76-6.19v-33.32c6.36-0.96 10.22-4.1 15.96-0.58 2.23 1.3 3.29-3.14 4.43-4.2 1.24 6.92-3.41 11.86-10.07 13.83-6.17 2.63-9.94 11.82-5.6 16.77 6.54 3.62 12.87 7.25 19.31 6 12.81-3.53 13.09-21.65 6.16-41.58 4.92 1.68 6.37 6.95 9.47 12.93 4.52-7.85 13.72-17.86 14-25.09 0.28-6.81-3.37-9.64-1.93-18.87 0.96-5.37 0.53-7.9-3.53-13.77-6.66-9-14.12-22.17-24.98-22.85-9.83-0.62-14.84 3.35-23.22 10.48v127.8z" fill="#FEFFFE"/>
  <path d="m158.1 83.53c-7.95-0.67-14.02 5.2-15.07 12.62-1.15 7.52 0 12.75 4.15 25.93 0.43-11.21-0.24-21.32 5.24-21.95 6.95 0.58 10.61-2.86 13.71-8.32 2.15-1.05 4.96-2.2 7.01-4.45-3.06-0.43-8.17-3.27-15.04-3.83z" fill="#76261F"/>
  <path d="m157.1 88.71c-3.19-0.38-7.04 1.77-7.62 5.54 3.29 2.15 8.4 1.57 10.44-3.29 0.38-1.87-0.97-2.15-2.82-2.25z" fill="#FEFFFE"/>
  <path d="m35.81 68.75c2.43-9.92 6.2-17.44 10.53-22.39-11.33-10.39-14.88-23.1-10.44-39.8 10.35 12.03 19.88 14.86 37.92 15.82 14.1-8.2 29.34-10.73 47.01-11.02v237.9c-49.27-20.5-99.12-58.24-92.76-134.1 1.25-13.92 3.68-33.02 7.74-46.4z" fill="#186D6A"/>
  <path d="m42.95 20.91c13.48 8.88 26.37 8.21 40.96 10.84 18.21 3.34 31.88 10.86 36.21 36.96-7.85-13.49-19.18-17.54-39.01-19.08-19.49-0.91-36-11.01-38.16-28.72z" fill="#54AE86"/>
  <path d="m89.21 24.82c9.1-2.73 18.63-4.79 31.27-4.79v28.44c-7.56-14.19-17-20.26-31.27-23.65z" fill="#69C5B5"/>
  <path d="m53.09 50.33c4.06 2.44 6.58 3.49 10.73 4.5-8.61 7.62-11.7 16.3-11.17 26.88 1.24 17.21 14.53 34.61 35.7 34.61 8.72 0 14.81-2.06 20.55-6.5l11.83 19.92v3.48c-13.48 5.55-29.32 4.4-39.9 1.2-19.21-5.46-34.58-20.51-38.92-43.18-2.33-13.08 1.73-29.61 11.18-40.91z" fill="#69C5B5"/>
  <path d="m37.12 105.7c7.56 17.22 18.33 26.75 36.37 34.37 16.42 15.97 18.47 38.07-2.7 68.56-22.36-20.49-35.5-47.94-34.35-81.58l0.68-21.35z" fill="#30B096"/>
  <path d="m36.35 129.1c10.47 11.06 19.91 14.73 28.73 26.75 12.33 15.98 12.7 31.39 5.95 51.79-22.27-20.49-34.31-45.41-34.68-78.54z" fill="#0F989A"/>
  <path d="m86.91 143.9c9.83 2.44 20.7 1.1 33.68-2.09v49.4c-4.33-0.53-6.48-4.3-10.44-9.75l-19.02-25.64-4.22-11.92z" fill="#98CC6E"/>
  <path d="m90.37 156 24.79 36.65 5.49 16.46v30.49c-17.12-6.44-29.61-12.88-43.62-25.38 15.03-20.49 21.98-38.83 13.34-58.22z" fill="#54AE86"/>
  <path d="m120.6 94.58-5.87 10.11 5.87 10.48v-20.59z" fill="#E79F4B"/>
  <path d="m74.84 57.31c15.34 0.86 38.26 5.72 39.6 24.82 0.77 11.16-9.71 25.99-26.13 25.99-15.05 0-26.88-12.35-26.88-26.5 0-10.49 5.87-18.69 13.41-24.31z" fill="#FEFFFE"/>
  <path d="m82.39 68.42c2.72-1.39 5.53-2.21 8.35-1.92 8.51 0.86 12.65 9.64 12.18 15.63-0.77 8.2-8.41 13.83-14.67 13.45-9.26-0.57-16.2-9.26-13.48-21.38 1.85 3.03 3.5 4.52 6.22 4.43 7.73-0.29 7.92-10.21 1.4-10.21z" fill="#0B6461"/>
  <path d="m128.5 202.2c6.94-1.06 12.33-3.5 18.37-5.93 1.34 12.49-7.86 26.41-18.28 39.4l-0.09-33.47z" fill="#AD763D"/>
</svg>