<svg xmlns="http://www.w3.org/2000/svg" width="256" height="251" fill="none" viewBox="0 0 256 251">
<!-- SVG created with Arrow, by QuiverAI (https://quiver.ai) -->
  <path d="m43.7 72.59 81.33-37.78 81.33 37.37v108.5l-81.33 38.17-81.33-38.64v-107.6z" fill="url(#paint0_radial_161_2660)" stroke="#000" stroke-linejoin="round" stroke-width="2.3"/>
  <path d="m125 110.8v108" stroke="#000" stroke-linejoin="round" stroke-width="1.7"/>
  <path d="m43.7 72.59 81.33 38.18 81.33-38.18" stroke="#000" stroke-linejoin="round" stroke-width="2.3"/>
  <path d="m43.7 180.2 81.33-37.77" stroke="#000" stroke-linejoin="round" stroke-width="1.7"/>
  <path d="m125 142.4 80.43 37.37" stroke="#000" stroke-linejoin="round" stroke-width="1.7"/>
  <path d="m124.7 172.2c25.08 0 46.18-21.1 46.18-46.18 0-23.81-20.36-45.28-45.58-45.28s-46.59 19.16-46.59 46.09c0 23.56 19.45 45.37 45.99 45.37z" fill="url(#paint1_radial_161_2660)"/>
  <path d="m160.9 100.9c6.35 9.1 9.26 21.08 7.11 33.03-3.96 22.05-22.76 36.49-43.71 36.49-12.47 0-22.47-4.3-30.3-12.6" stroke="url(#paint2_linear_161_2660)" stroke-miterlimit="10" stroke-width="3"/>
  <path d="m88.81 99.4c-5.93 7.94-8.87 17.76-7.82 29.57 0.78 8.65 4.27 16.14 7.82 21.99" stroke="url(#paint3_linear_161_2660)" stroke-miterlimit="10" stroke-width="3"/>
  <path d="m93.43 95.92c8.56-9.75 19.82-13.83 31.77-13.83 12.46 0 22.86 5.59 31.02 13.04" stroke="url(#paint4_linear_161_2660)" stroke-miterlimit="10" stroke-width="3"/>
  <path d="m114.7 72.59c-21.98 4.09-38.66 21.17-44.71 47.84-0.1-14.58 13.35-41.59 44.71-47.84z" fill="url(#paint5_linear_161_2660)"/>
  <path d="m147.8 77.54c10.1 3.77 20.3 12.42 25.62 25.76-5.65-9.41-13.2-19.43-25.62-25.76z" fill="url(#paint6_linear_161_2660)"/>
  <path d="m112.1 179.4c-17.13-3.05-30.99-15.13-38.4-33.65l0.59 0.4c6.82 16.7 20.42 29.73 37.81 33.25z" fill="url(#paint7_linear_161_2660)"/>
  <path d="m139.1 178.6c15.93-5.13 35.9-18.4 39.86-45.07l0.39 0.4c-2.8 20.37-18.7 39.94-40.25 44.67z" fill="url(#paint8_linear_161_2660)"/>
  <path d="m208.2 73.12c13.89 0 29.4 5.99 30.39 17.97 1.38 17.42-22.2 36.72-37.58 46.53-6.42 4.19-13.24 8.09-20.88 10.3 13.89-7.45 57.67-33.08 58.07-55.22 0.13-9.48-9.21-17.77-30-19.58z" stroke="#000" stroke-miterlimit="10" stroke-width=".5"/>
  <path d="m43.7 180.2c-11.65-1.07-22.18-4.06-26.54-12.35-9.34-18.49 17.53-40.16 34.07-50.91 5.19-3.28 10.71-6.88 16.9-8.76-13.89 8.76-50.11 30.57-51.82 53.52-0.66 9.35 7.77 17.29 27.39 18.5z" stroke="#000" stroke-miterlimit="10" stroke-width=".5"/>
  <path d="m193.8 56.21 59.07-56.21-45.84 46.18-13.23 10.03z" fill="url(#paint9_linear_161_2660)"/>
  <path d="m215 66.37 31.89-20.26 0.66-0.4 0.39-2.88 1.64 2.41 1.38-1.81-0.92 2.68 0.59 1.07-2.16-0.67-2.8 1.61 0.46-0.94-31.13 19.19z" fill="url(#paint10_linear_161_2660)"/>
  <path d="m221.8 85.2 25.19-11.28-13.69 7.69-11.5 3.59z" fill="url(#paint11_linear_161_2660)"/>
  <path d="m184.7 49.13 24.21-31.38 0.46-0.4-0.66-4.53 1.91 2.65 1.65-2.11-1.25 2.98 0.79 1.21-2.44-0.94-0.66 0.74-24.01 31.78z" fill="url(#paint12_linear_161_2660)"/>
  <path d="m169.3 43.43 10.3-23.73-7.09 15.9-3.21 7.83z" fill="url(#paint13_linear_161_2660)"/>
  <path d="m0 250.7 55.23-53.8-51.12 51.19-4.11 2.61z" fill="url(#paint14_linear_161_2660)"/>
  <path d="m39.14 234.8 3.35-2.41 0.46-3.25 1.38 2.85 1.38-0.67-1.38 1.87 0.53 2.15-2.24-1.61-3.48 1.07z" fill="url(#paint15_linear_161_2660)"/>
  <path d="m44.6 228.2 19.84-25.29-17.32 22.3-2.52 2.99z" fill="url(#paint16_linear_161_2660)"/>
  <path d="m72.92 229.6 8.85-20.97-5.65 14.69-3.2 6.28z" fill="url(#paint17_linear_161_2660)"/>
  <path d="m5.75 206.2 2.6-2.81-1.65-2.28 2.61 1.51 1.91-1.98-0.79 2.55 1.71 0.8-2.6 0.27-1.12 2.48-0.27-2.68-2.4 2.14z" fill="url(#paint18_linear_161_2660)"/>
  <path d="m11.44 201.4 21.99-13.73-19.29 12.39-2.7 1.34z" fill="url(#paint19_linear_161_2660)"/>
  <path d="m3.71 173.8 28.14-10.22-20.89 8.21-7.25 2.01z" fill="url(#paint20_linear_161_2660)"/>
  <defs>
    <radialGradient id="paint0_radial_161_2660" cx="0" cy="0" r="1" gradientTransform="translate(125 79.9) scale(90.11 90.24)" gradientUnits="userSpaceOnUse">
      <stop stop-color="#2C2E33" offset="0"/>
      <stop stop-color="#0D0D10" offset="1"/>
    </radialGradient>
    <radialGradient id="paint1_radial_161_2660" cx="0" cy="0" r="1" gradientTransform="translate(124.8 126.5) scale(60.07 60.16)" gradientUnits="userSpaceOnUse">
      <stop stop-color="#0B0B0B" offset="0"/>
      <stop stop-color="#151529" offset=".53"/>
      <stop stop-color="#202057" stop-opacity=".75" offset="1"/>
    </radialGradient>
    <linearGradient id="paint2_linear_161_2660" x1="92.64" x2="170.1" y1="135.6" y2="135.6" gradientUnits="userSpaceOnUse">
      <stop stop-color="#A9BEFF" offset="0"/>
      <stop stop-color="#5639D1" offset="1"/>
    </linearGradient>
    <linearGradient id="paint3_linear_161_2660" x1="80.58" x2="89.92" y1="125.2" y2="125.2" gradientUnits="userSpaceOnUse">
      <stop stop-color="#81F0FF" offset="0"/>
      <stop stop-color="#60B6E7" offset="1"/>
    </linearGradient>
    <linearGradient id="paint4_linear_161_2660" x1="92.77" x2="156.2" y1="89" y2="89" gradientUnits="userSpaceOnUse">
      <stop stop-color="#81F0FF" offset="0"/>
      <stop stop-color="#B656DB" offset="1"/>
    </linearGradient>
    <linearGradient id="paint5_linear_161_2660" x1="70.01" x2="114.7" y1="96.51" y2="96.51" gradientUnits="userSpaceOnUse">
      <stop stop-color="#81F0FF" offset="0"/>
      <stop stop-color="#60B6E7" offset="1"/>
    </linearGradient>
    <linearGradient id="paint6_linear_161_2660" x1="147.8" x2="173.4" y1="90.43" y2="90.43" gradientUnits="userSpaceOnUse">
      <stop stop-color="#B656DB" offset="0"/>
      <stop stop-color="#81F0FF" offset="1"/>
    </linearGradient>
    <linearGradient id="paint7_linear_161_2660" x1="73.71" x2="112.1" y1="162.5" y2="162.5" gradientUnits="userSpaceOnUse">
      <stop stop-color="#A9BEFF" offset="0"/>
      <stop stop-color="#81F0FF" offset="1"/>
    </linearGradient>
    <linearGradient id="paint8_linear_161_2660" x1="139.1" x2="179.4" y1="156" y2="156" gradientUnits="userSpaceOnUse">
      <stop stop-color="#3665CC" offset="0"/>
      <stop stop-color="#202057" stop-opacity=".75" offset="1"/>
    </linearGradient>
    <linearGradient id="paint9_linear_161_2660" x1="193.8" x2="252.9" y1="28.1" y2="28.1" gradientUnits="userSpaceOnUse">
      <stop stop-color="#95B0D6" offset="0"/>
      <stop stop-color="#374968" offset="1"/>
    </linearGradient>
    <linearGradient id="paint10_linear_161_2660" x1="215" x2="250.9" y1="49.6" y2="49.6" gradientUnits="userSpaceOnUse">
      <stop stop-color="#95B0D6" offset="0"/>
      <stop stop-color="#374968" offset="1"/>
    </linearGradient>
    <linearGradient id="paint11_linear_161_2660" x1="221.7" x2="246.9" y1="79.46" y2="79.46" gradientUnits="userSpaceOnUse">
      <stop stop-color="#95B0D6" offset="0"/>
      <stop stop-color="#374968" offset="1"/>
    </linearGradient>
    <linearGradient id="paint12_linear_161_2660" x1="184.7" x2="212.3" y1="30.98" y2="30.98" gradientUnits="userSpaceOnUse">
      <stop stop-color="#95B0D6" offset="0"/>
      <stop stop-color="#374968" offset="1"/>
    </linearGradient>
    <linearGradient id="paint13_linear_161_2660" x1="169.3" x2="179.6" y1="31.57" y2="31.57" gradientUnits="userSpaceOnUse">
      <stop stop-color="#95B0D6" offset="0"/>
      <stop stop-color="#374968" offset="1"/>
    </linearGradient>
    <linearGradient id="paint14_linear_161_2660" x1="-.0001626" x2="55.23" y1="223.8" y2="223.8" gradientUnits="userSpaceOnUse">
      <stop stop-color="#95B0D6" offset="0"/>
      <stop stop-color="#374968" offset="1"/>
    </linearGradient>
    <linearGradient id="paint15_linear_161_2660" x1="39.14" x2="45.71" y1="232.1" y2="232.1" gradientUnits="userSpaceOnUse">
      <stop stop-color="#374968" offset="0"/>
      <stop stop-color="#0B1426" offset="1"/>
    </linearGradient>
    <linearGradient id="paint16_linear_161_2660" x1="44.6" x2="64.44" y1="215.4" y2="215.4" gradientUnits="userSpaceOnUse">
      <stop stop-color="#95B0D6" offset="0"/>
      <stop stop-color="#374968" offset="1"/>
    </linearGradient>
    <linearGradient id="paint17_linear_161_2660" x1="72.92" x2="81.77" y1="219.1" y2="219.1" gradientUnits="userSpaceOnUse">
      <stop stop-color="#95B0D6" offset="0"/>
      <stop stop-color="#374968" offset="1"/>
    </linearGradient>
    <linearGradient id="paint18_linear_161_2660" x1="5.746" x2="12.14" y1="203.8" y2="203.8" gradientUnits="userSpaceOnUse">
      <stop stop-color="#374968" offset="0"/>
      <stop stop-color="#0B1426" offset="1"/>
    </linearGradient>
    <linearGradient id="paint19_linear_161_2660" x1="11.44" x2="33.43" y1="194" y2="194" gradientUnits="userSpaceOnUse">
      <stop stop-color="#95B0D6" offset="0"/>
      <stop stop-color="#374968" offset="1"/>
    </linearGradient>
    <linearGradient id="paint20_linear_161_2660" x1="3.711" x2="31.85" y1="168.7" y2="168.7" gradientUnits="userSpaceOnUse">
      <stop stop-color="#95B0D6" offset="0"/>
      <stop stop-color="#374968" offset="1"/>
    </linearGradient>
  </defs>
</svg>