<svg xmlns="http://www.w3.org/2000/svg" width="250" height="250" viewBox="0 0 250 250">
<!-- SVG created with Arrow, by QuiverAI (https://quiver.ai) -->
  <path d="m244.8 219.2-30.05-47.9h-3.95l-10.76-8.68-10.27-1.96-18.77-4.91-33.72-59.46-2.9-0.18-5.26-71.15c-4.86-4.5-8.22-5.95-13.51-5.95-9.59 0-15.01 6.01-19.01 12.96-1.9-1.09-3.5-1.63-6.22-1.63-7.67 0-11.83 6.92-12.42 12.97-2.2-0.93-3.25-1.14-5.98-1.14-9.25 0-14.07 8.61-13.92 15.62 0.14 7 6.21 12.3 12.77 12.3 4.2 0 6.18-0.38 9.97-2.65 2.37 6.11 6.38 8.87 12.27 8.87 3.62 0 5.84-0.6 9.2-2.41 1.51 5.62 5.2 9.83 9.87 10.91l3.97 12.76-3.13-1.51c-9.07 22.85-23.23 45.85-35.74 59.75l-17.03 4.07-11.31 2.21-14.45 9.21h-0.8l-27.88 47.9v3.62h103.6c3.78 5.47 8.7 6.59 15.45 6.59s12.11-3.34 14.93-7.35h104.7v-2.86h0.39z" fill="#A8514E"/>
  <path d="m244.4 219.2-29.66-47.9h-3.95l-10.76-8.68-10.27-1.96-18.77-4.91-33.72-59.46-2.9-0.18-5.26-71.15c-4.86-4.5-7.85-5.95-13.14-5.95-9.59 0-15.6 5.9-19.38 12.96-1.9-1.09-3.5-1.63-6.22-1.63-7.67 0-11.83 6.92-12.42 12.97-2.2-0.93-3.25-1.14-5.98-1.14-9.25 0-14.07 8.61-13.92 15.62 0.14 7 6.21 12.3 12.77 12.3 4.2 0 6.18-0.38 9.97-2.65 2.37 6.11 6.38 8.87 12.27 8.87 3.62 0 5.84-0.6 9.2-2.41 1.51 5.62 5.2 9.83 9.87 10.91l3.97 12.76-3.13-1.51c-9.07 22.85-23.23 45.85-35.74 59.75l-17.03 5.91-11.31 0.37-15.25 9.21-27.5 47.9v2.86h103.2c3.78 5.47 8.7 6.59 15.45 6.59s12.11-3.34 14.93-7.35h104.7v-2.1z" fill="#A8514E"/>
  <path d="m11.47 218.1 37.44-55.99 11.31-1.9 17.03-4.38 35.74-59.75 3.13 0.42 4.04 1.65h4.62v120h-113.3z" fill="#F7F0B2"/>
  <path d="m238.3 218.1-37.44-55.99-11.31-1.43-18.55-4.91-33.72-59.46-2.9-0.18-5.26 1.31-4.35 1.12v119.5h113.5z" fill="#F0C577"/>
  <path d="m26.75 203.2 22.16-41.07-10.85 10.15-26.59 45.84 15.28-14.92z" fill="#D8B07B"/>
  <path d="m223.8 203.2-22.88-41.07 9.94 9.21 27.5 46.78-14.56-14.92z" fill="#c96"/>
  <path d="m124.8 218.1h113.5l-14.56-14.92c-21.11-0.76-33.61-9.3-58.94-9.3-22.88 0-33.85 7.63-40.03 17.38v6.84z" fill="#B7794E"/>
  <path d="m124.8 218.1h-113.3l15.28-4.18c20.34-0.59 35.62-5.89 53.03-5.89 16.24 0 23.4 4.33 32.03 10.07h12.97z" fill="#602D34"/>
  <path d="m124.8 218.1h113.5l-18.18-2.07c-17.41-1.2-34.05-8-56.02-8-16 0-23.32 6.37-27.18 10.07h-12.15z" fill="#602D34"/>
  <path d="m124.8 211.2c-4.62-9.75-16.9-18.68-37.66-18.68-20 0-33.51 7.5-48.79 9.25l-11.58 1.35 16.29-2.78 8.22-2.61c9.43-3.14 19.53-7.51 34.51-7.51 18.34 0 32.41 8.61 39.01 17.53v3.45z" fill="#D1A875"/>
  <path d="m124.8 204.4c6.97-11.28 16.15-11.11 34.33-11.81 14.8-0.6 28.7 5.15 39.9 7.66l14.94 2.94-12.24-2.25c-11.02-3.29-20.27-9.87-38.69-9.87-18.03-5.16-32.6 4.02-38.24 13.33z" fill="#B7794E"/>
  <path d="m112.1 217-0.95 2.13c4 3.98 7.28 5.62 13.67 5.62v-13.47c-5.64 0-9.3 2.72-12.72 5.72z" fill="#944130"/>
  <path d="m137.2 217 0.95 2.13c-4 3.98-7 5.62-13.39 5.62v-13.47c5.64 0 9.01 2.72 12.44 5.72z" fill="#602D34"/>
  <path d="m124.8 210.1c-4.47 0-8.7 2.56-12.13 6.09l1.06 2.4c3.5-3.2 6.6-4.71 11.07-4.71s7.13 1.36 10.63 4.71l1.52-2.4c-3.11-3.4-7.34-6.09-12.15-6.09z" fill="#D68227"/>
  <path d="m172.9 158.7c-12.65-15.8-27.59-40.65-35.57-62.42l-2.9-0.18-5.26 2.1-4.35 0.33v105.8c7.67-14.11 14.23-18.41 32.65-18.41 14.56 0 24.38 3.6 33.3 5.44l14.94 3c-9.56-10.44-23.46-23.74-32.81-35.69z" fill="#B73A39"/>
  <path d="m139.6 117.3 18.3 18.47c-9.59-13.07-16.1-25.02-20.62-39.46l-2.9-0.18-5.26 1.31-4.35 1.12v30.52l6.18-11.78 8.92 11.78-0.27-11.78z" fill="#A83A39"/>
  <path d="m167.1 151.2c-9.9-14.11-21.1-28.57-27.5-33.97l1.51 12.15-11.84-12.15-4.5 9.75v77.34c7.67-14.11 16.84-18.41 33.87-18.86 12-0.35 22.39 3.2 27.36 4.05l19.66 4.84c-11.02-11.95-28.05-28.68-38.56-43.15z" fill="#7F3931"/>
  <path d="m139.9 142.6-32.4 45.68c7.4 4.37 13.96 10.55 17.3 16.05v-38.45l15.1-22.91 17.55 42.15-2.32-32.4 30.51 35.18 5.49 1.18-36-36.36-15.23-10.12z" fill="#653628"/>
  <path d="m113 96.06c-6.24 13.85-12.63 27.69-21.18 39.69l17.82-17.69-2.15 8.97 11.84-13.36 4.52 14.48 0.94-29.61-5.46-0.41-6.33-2.07z" fill="#F3CD4D"/>
  <path d="m77.25 155.8c-11.02 14.47-21 24.91-33.97 38.59l13.7-3.71 6.56-1.98 33.72-40.6-8.55 36.67 18.77-57.75-15.67 8.72c-4.62 7.16-9.09 13.71-14.56 20.06z" fill="#C4844A"/>
  <path d="m119.3 113.7-30.91 71.49c8.04 0 14.22 1.51 19.07 3.96l-0.37-39.89 4.3 0.78 7.91-36.34z" fill="#C4844A"/>
  <path d="m119.3 113.7-12.21 35.56 7.67 30.31 10-13.62v-37.77l-5.46-14.48z" fill="#B27238"/>
  <path d="m148.2 19.01c-9.21 0-14.71 4.4-19.09 8.11-4.05-4.5-7.83-8.11-13.51-8.11v39.83h75.39c1.1-8.61-5.08-16.67-13.63-16.67-2.72 0-4.27 0.54-6.96 1.66 0.39-12.72-10.12-24.82-22.2-24.82z" fill="#A05B56"/>
  <path d="m124.8 33.93c12.07-1.51 19.01 3.96 23.05 13.71 1.9-0.73 3.03-0.81 4.93-0.81 8.03 0 14.05 5.8 14.05 12.01h-108.7c-0.76-8.61 5.42-16.67 14.31-16.67 2.73 0 3.78 0.44 6.33 1.66 0.39-7.55 5.47-13.49 12.03-13.49 2.72 0 3.88 0.47 5.87 1.63 4-8.18 10.25-12.96 19.38-12.96 5.29 0 7.85 1.12 11.42 4.78l1.72 2.25-4.35 7.89z" fill="#E5CB98"/>
  <path d="m124.8 58.84h66.23c1.1 7.17-6.94 12.39-12.6 11.25-1.13-0.24-2.37-0.63-3.39 0.88-2.37 3.71-5.09 5.73-10.21 5.73s-7.85-2.45-10.57-6.08c-1.9 6.79-7.48 11.19-15.23 10.8l-4.62 14.69-9.61 2.43v-39.7z" fill="#96383D"/>
  <path d="m58.07 58.84c0.75 7.17 6.21 11.25 12.77 11.25 4.2 0 6.18-0.38 9.97-2.65 2.37 6.11 6.38 8.87 12.27 8.87 5.12 0 7.1-1.04 9.83-2.76l1.05-4.29-2.9-10.42h-42.99z" fill="#C99859"/>
  <path d="m124.8 58.84h-44.77c0.76-7.55 7.32-12.77 13.88-10.89l3.26 1.12c-2.72 2.59-4.07 5.84-4.07 9.77h14.56l4.51 11.25 3.68 9.75 4.33 1.18 4.62 17.52v-39.7z" fill="#B57642"/>
  <path d="m120.9 35.44c-8.4-2.63-17.98 0-18.74 11.39 3.96-1.51 6.86-1.9 10.84-0.39 1.89-4.82 4.22-7.43 7.9-11z" fill="#A05052"/>
  <path d="m107.6 58.84h-17.55c-0.37 6.52 4.15 9.38 8.62 9.38s8.93-2.51 8.93-9.38z" fill="#A2393D"/>
  <path d="m146.1 58.84c1.13 0 2.65-0.39 2.65 1.12 0.76 4.83-5.06 8.26-10.14 9.3 2.27-2.94 3.3-5.59 2.91-10.42h4.58z" fill="#F2A62A"/>
  <path d="m121.6 65.36c-2.51 0-3.42 0.96-3.42 2.36 0 1.54 1.55 2.37 3.05 2.37 1.9 0 3.13-1.12 3.13-2.65 0-1.12-0.86-2.08-2.76-2.08z" fill="#A2393D"/>
  <path d="m134.4 72.01c-5.97 0-5.97 9.01-5.97 20.79l5.5-12.96c3.37-1.12 5.54-2.71 4.71-5.43-0.54-1.65-1.78-2.4-4.24-2.4z" fill="#F2A62A"/>
  <path d="m115.8 72.01c-2.49 0-3.29 1.12-3.29 3.1 0 2.3 1.51 3.96 3.29 3.96l4.33 0.77-1.55-6.29c-0.76-1.12-1.48-1.54-2.78-1.54z" fill="#A2393D"/>
  <path d="m94.98 82.2c-2.72 0-3.44 1.98-3.44 3.1 0 1.98 1.13 2.73 3.07 2.73h9.35c-3.35-2.73-5.65-5.83-8.98-5.83z" fill="#C47849"/>
  <path d="m157.7 83.73 6.21 5.18c2.13 1.12 4.39 0.34 4.78-2.05 0.35-2.05-1.24-3.52-3.54-3.52l-7.45 0.39z" fill="#96383D"/>
  <path d="m145.4 88.42c0 1.19 1.51 1.19 2.27 1.19 1.14 0 1.14-0.36 1.14-1.58 0-0.75-0.39-1.56-1.52-1.17-0.76 0.42-1.89 0.78-1.89 1.56z" fill="#96383D"/>
  <path d="m152.6 96.06 1.9 5.15c0.76 1.51 1.89 1.51 3.02 1.12 1.52-0.75 2.24-2.26 0.73-3.79-1.51-1.51-2.99-1.9-5.65-2.48z" fill="#96383D"/>
  <path d="m96.11 94.34-3.29 4.57c-1.51 1.12-2.99 0.73-3.38-0.37-0.39-1.51 0-3.81 1.87-3.81l4.8-0.39z" fill="#D39652"/>
</svg>